<svg width="33" height="29" viewBox="0 0 33 29" fill="none" xmlns="http://www.w3.org/2000/svg">
<path d="M32.6853 7.08996C32.096 8.7511 31.9358 10.3919 32.0108 12.1293C32.0495 13.0451 31.9849 13.9253 31.8298 14.7724C31.2612 17.8886 29.4934 20.5724 27.3094 23.012C25.9266 24.5561 24.2673 25.8382 22.4452 26.8379C19.2842 28.5678 15.6296 29.2826 12.0371 28.8985C10.4631 28.7306 8.89162 28.466 7.30986 28.4329C7.15995 28.4279 7.00746 28.4279 6.85755 28.4279C5.90126 28.4355 4.93204 28.5398 3.999 28.3414C3.22104 28.1786 2.49736 27.8097 1.85638 27.3416C1.38081 26.9957 0.936266 26.5708 0.649377 26.0544C0.354734 25.5304 0.28495 24.8995 0.168643 24.3195C-0.0562156 23.1951 -0.0949844 22.0479 0.303042 20.9565C0.574424 20.2086 0.923343 19.4836 1.08617 18.7078C1.19214 18.2066 1.2154 17.6928 1.22057 17.1815C1.22574 16.4285 1.18439 15.6704 1.29035 14.92C1.38857 14.2255 1.52038 13.531 1.69872 12.8493C2.06315 11.445 2.61108 10.0943 3.28824 8.80961C3.45365 8.49672 3.62941 8.18891 3.8155 7.88873C5.0897 5.81803 6.98678 4.03224 9.07254 2.76794C12.4609 0.709962 16.5808 -0.231266 20.5404 0.0485581C21.8637 0.142681 23.1715 0.369084 24.487 0.529348C25.1151 0.605663 25.7793 0.712505 26.4074 0.666716C27.0122 0.62347 27.6092 0.47847 28.2114 0.41233C29.0514 0.318207 29.7596 0.547155 30.4031 1.07628C31.3 1.81145 32.0495 2.71707 32.6052 3.72698C33.1738 4.76487 33.0678 6.01137 32.6853 7.08996Z" fill="#FCC21B"/>
</svg>
