<svg width="33" height="29" viewBox="0 0 33 29" fill="currentColor" xmlns="http://www.w3.org/2000/svg">
<g clip-path="url(#clip0)">
<path d="M32.6853 7.08996C32.096 8.7511 31.9358 10.3919 32.0107 12.1293C32.0495 13.0451 31.9849 13.9253 31.8298 14.7724C31.2612 17.8886 29.4933 20.5724 27.3094 23.012C25.9266 24.5561 24.2673 25.8382 22.4452 26.8379C19.2842 28.5678 15.6296 29.2826 12.0371 28.8985C10.463 28.7306 8.89161 28.466 7.30984 28.4329C7.15994 28.4279 7.00744 28.4279 6.85754 28.4279C5.90124 28.4355 4.93202 28.5398 3.99899 28.3414C3.22102 28.1786 2.49734 27.8097 1.85636 27.3416C1.3808 26.9957 0.93625 26.5708 0.649361 26.0544C0.354718 25.5304 0.284935 24.8995 0.168628 24.3195C-0.0562309 23.1951 -0.0949996 22.0479 0.303027 20.9565C0.574408 20.2086 0.923328 19.4836 1.08616 18.7078C1.19212 18.2066 1.21539 17.6928 1.22055 17.1815C1.22572 16.4285 1.18437 15.6704 1.29034 14.92C1.38855 14.2255 1.52037 13.531 1.6987 12.8493C2.06313 11.445 2.61106 10.0943 3.28822 8.80961C3.45364 8.49672 3.62939 8.18891 3.81548 7.88873C5.08968 5.81803 6.98677 4.03224 9.07253 2.76794C12.4609 0.709962 16.5808 -0.231266 20.5403 0.0485581C21.8636 0.142681 23.1714 0.369084 24.487 0.529348C25.1151 0.605663 25.7793 0.712505 26.4074 0.666716C27.0121 0.62347 27.6092 0.47847 28.2114 0.41233C29.0514 0.318207 29.7596 0.547155 30.4031 1.07628C31.3 1.81145 32.0495 2.71707 32.6052 3.72698C33.1738 4.76487 33.0678 6.01137 32.6853 7.08996Z" fill="currentColor"/>
</g>
<defs>
<clipPath id="clip0">
<rect width="33" height="29" fill="currentColor"/>
</clipPath>
</defs>
</svg>
